<svg xmlns="http://www.w3.org/2000/svg" xmlns:xlink="http://www.w3.org/1999/xlink" width="500" zoomAndPan="magnify" viewBox="0 0 375 374.999991" height="500" preserveAspectRatio="xMidYMid meet" version="1.0"><defs><g/><clipPath id="2b145be963"><path d="M 91.070312 109.492188 L 299.570312 109.492188 L 299.570312 236.242188 L 91.070312 236.242188 Z M 91.070312 109.492188 " clip-rule="nonzero"/></clipPath><clipPath id="a869b6870d"><rect x="0" width="277" y="0" height="52"/></clipPath></defs><g clip-path="url(#2b145be963)"><path fill="#000000" d="M 225.714844 109.492188 L 186.007812 160.570312 L 153.425781 202.511719 L 120.09375 160.277344 L 120.09375 236.242188 L 91.140625 236.242188 L 91.140625 109.492188 L 117.886719 109.492188 L 153.21875 156.359375 L 185.964844 112.289062 L 188.050781 109.492188 Z M 294.710938 146.558594 C 291.542969 138.804688 287.125 132.050781 281.585938 126.546875 C 276.042969 121.042969 269.710938 116.789062 262.671875 113.871094 C 257.046875 111.578125 251.171875 110.160156 245.128906 109.703125 L 223.339844 137.722656 L 240.128906 137.722656 C 246.378906 137.722656 251.546875 139.179688 256.003906 142.222656 C 260.628906 145.351562 264.128906 149.476562 266.667969 154.773438 C 269.253906 160.195312 270.585938 166.28125 270.585938 172.867188 C 270.585938 179.5 269.292969 185.378906 266.667969 190.839844 C 264.085938 196.132812 260.628906 200.261719 255.960938 203.472656 C 251.546875 206.558594 246.378906 208.015625 240.128906 208.015625 L 214.796875 208.015625 L 214.796875 148.726562 L 185.925781 185.878906 L 185.925781 236.242188 L 240.589844 236.242188 C 248.171875 236.242188 255.585938 234.785156 262.628906 231.867188 C 269.628906 228.949219 276.003906 224.695312 281.542969 219.148438 C 287.085938 213.605469 291.460938 206.890625 294.667969 199.136719 C 297.835938 191.382812 299.460938 182.542969 299.460938 172.828125 C 299.5 163.195312 297.875 154.355469 294.710938 146.558594 Z M 294.710938 146.558594 " fill-opacity="1" fill-rule="nonzero"/></g><g transform="matrix(1, 0, 0, 1, 49, 236)"><g clip-path="url(#a869b6870d)"><g fill="#191919" fill-opacity="1"><g transform="translate(1.233233, 37.57223)"><g><path d="M 31.046875 -25.421875 L 31.046875 0 L 24.84375 0 L 24.84375 -15.25 L 19.15625 0 L 14.15625 0 L 8.4375 -15.28125 L 8.4375 0 L 2.25 0 L 2.25 -25.421875 L 9.5625 -25.421875 L 16.703125 -7.828125 L 23.765625 -25.421875 Z M 31.046875 -25.421875 "/></g></g></g><g fill="#191919" fill-opacity="1"><g transform="translate(34.479268, 37.57223)"><g><path d="M 11.4375 0.296875 C 9.457031 0.296875 7.675781 -0.125 6.09375 -0.96875 C 4.519531 -1.820312 3.28125 -3.03125 2.375 -4.59375 C 1.46875 -6.164062 1.015625 -8.003906 1.015625 -10.109375 C 1.015625 -12.179688 1.472656 -14.007812 2.390625 -15.59375 C 3.304688 -17.175781 4.5625 -18.390625 6.15625 -19.234375 C 7.75 -20.078125 9.535156 -20.5 11.515625 -20.5 C 13.492188 -20.5 15.28125 -20.078125 16.875 -19.234375 C 18.46875 -18.390625 19.722656 -17.175781 20.640625 -15.59375 C 21.554688 -14.007812 22.015625 -12.179688 22.015625 -10.109375 C 22.015625 -8.023438 21.550781 -6.191406 20.625 -4.609375 C 19.695312 -3.035156 18.429688 -1.820312 16.828125 -0.96875 C 15.222656 -0.125 13.425781 0.296875 11.4375 0.296875 Z M 11.4375 -5.078125 C 12.625 -5.078125 13.632812 -5.507812 14.46875 -6.375 C 15.300781 -7.238281 15.71875 -8.484375 15.71875 -10.109375 C 15.71875 -11.722656 15.3125 -12.960938 14.5 -13.828125 C 13.695312 -14.703125 12.703125 -15.140625 11.515625 -15.140625 C 10.304688 -15.140625 9.300781 -14.707031 8.5 -13.84375 C 7.707031 -12.988281 7.3125 -11.742188 7.3125 -10.109375 C 7.3125 -8.484375 7.703125 -7.238281 8.484375 -6.375 C 9.273438 -5.507812 10.257812 -5.078125 11.4375 -5.078125 Z M 11.4375 -5.078125 "/></g></g></g><g fill="#191919" fill-opacity="1"><g transform="translate(57.548684, 37.57223)"><g><path d="M 14.671875 -20.421875 C 16.984375 -20.421875 18.835938 -19.65625 20.234375 -18.125 C 21.640625 -16.59375 22.34375 -14.488281 22.34375 -11.8125 L 22.34375 0 L 16.1875 0 L 16.1875 -10.96875 C 16.1875 -12.320312 15.835938 -13.375 15.140625 -14.125 C 14.441406 -14.875 13.5 -15.25 12.3125 -15.25 C 11.132812 -15.25 10.191406 -14.875 9.484375 -14.125 C 8.785156 -13.375 8.4375 -12.320312 8.4375 -10.96875 L 8.4375 0 L 2.25 0 L 2.25 -26.796875 L 8.4375 -26.796875 L 8.4375 -17.5 C 9.0625 -18.382812 9.914062 -19.09375 11 -19.625 C 12.09375 -20.15625 13.316406 -20.421875 14.671875 -20.421875 Z M 14.671875 -20.421875 "/></g></g></g><g fill="#191919" fill-opacity="1"><g transform="translate(81.95808, 37.57223)"><g><path d="M 5.359375 -22.3125 C 4.273438 -22.3125 3.390625 -22.628906 2.703125 -23.265625 C 2.015625 -23.910156 1.671875 -24.703125 1.671875 -25.640625 C 1.671875 -26.609375 2.015625 -27.410156 2.703125 -28.046875 C 3.390625 -28.691406 4.273438 -29.015625 5.359375 -29.015625 C 6.421875 -29.015625 7.296875 -28.691406 7.984375 -28.046875 C 8.671875 -27.410156 9.015625 -26.609375 9.015625 -25.640625 C 9.015625 -24.703125 8.671875 -23.910156 7.984375 -23.265625 C 7.296875 -22.628906 6.421875 -22.3125 5.359375 -22.3125 Z M 8.4375 -20.203125 L 8.4375 0 L 2.25 0 L 2.25 -20.203125 Z M 8.4375 -20.203125 "/></g></g></g><g fill="#191919" fill-opacity="1"><g transform="translate(92.64172, 37.57223)"><g><path d="M 13.515625 -5.25 L 13.515625 0 L 10.359375 0 C 8.109375 0 6.351562 -0.546875 5.09375 -1.640625 C 3.84375 -2.742188 3.21875 -4.539062 3.21875 -7.03125 L 3.21875 -15.0625 L 0.765625 -15.0625 L 0.765625 -20.203125 L 3.21875 -20.203125 L 3.21875 -25.140625 L 9.421875 -25.140625 L 9.421875 -20.203125 L 13.46875 -20.203125 L 13.46875 -15.0625 L 9.421875 -15.0625 L 9.421875 -6.953125 C 9.421875 -6.347656 9.5625 -5.910156 9.84375 -5.640625 C 10.132812 -5.378906 10.617188 -5.25 11.296875 -5.25 Z M 13.515625 -5.25 "/></g></g></g><g fill="#191919" fill-opacity="1"><g transform="translate(107.345302, 37.57223)"><g/></g></g><g fill="#191919" fill-opacity="1"><g transform="translate(115.023031, 37.57223)"><g><path d="M 11.765625 -25.421875 C 14.453125 -25.421875 16.796875 -24.890625 18.796875 -23.828125 C 20.796875 -22.765625 22.34375 -21.273438 23.4375 -19.359375 C 24.539062 -17.441406 25.09375 -15.226562 25.09375 -12.71875 C 25.09375 -10.226562 24.539062 -8.015625 23.4375 -6.078125 C 22.34375 -4.148438 20.785156 -2.65625 18.765625 -1.59375 C 16.753906 -0.53125 14.421875 0 11.765625 0 L 2.25 0 L 2.25 -25.421875 Z M 11.375 -5.359375 C 13.71875 -5.359375 15.539062 -6 16.84375 -7.28125 C 18.144531 -8.5625 18.796875 -10.375 18.796875 -12.71875 C 18.796875 -15.050781 18.144531 -16.867188 16.84375 -18.171875 C 15.539062 -19.484375 13.71875 -20.140625 11.375 -20.140625 L 8.4375 -20.140625 L 8.4375 -5.359375 Z M 11.375 -5.359375 "/></g></g></g><g fill="#191919" fill-opacity="1"><g transform="translate(141.351862, 37.57223)"><g><path d="M 21.296875 -10.4375 C 21.296875 -9.851562 21.257812 -9.25 21.1875 -8.625 L 7.171875 -8.625 C 7.265625 -7.363281 7.664062 -6.398438 8.375 -5.734375 C 9.09375 -5.078125 9.972656 -4.75 11.015625 -4.75 C 12.554688 -4.75 13.628906 -5.398438 14.234375 -6.703125 L 20.828125 -6.703125 C 20.484375 -5.367188 19.867188 -4.171875 18.984375 -3.109375 C 18.109375 -2.046875 17.003906 -1.210938 15.671875 -0.609375 C 14.347656 -0.00390625 12.867188 0.296875 11.234375 0.296875 C 9.253906 0.296875 7.488281 -0.125 5.9375 -0.96875 C 4.394531 -1.820312 3.1875 -3.03125 2.3125 -4.59375 C 1.445312 -6.164062 1.015625 -8.003906 1.015625 -10.109375 C 1.015625 -12.203125 1.441406 -14.035156 2.296875 -15.609375 C 3.148438 -17.179688 4.347656 -18.390625 5.890625 -19.234375 C 7.441406 -20.078125 9.222656 -20.5 11.234375 -20.5 C 13.179688 -20.5 14.914062 -20.085938 16.4375 -19.265625 C 17.957031 -18.441406 19.144531 -17.269531 20 -15.75 C 20.863281 -14.226562 21.296875 -12.457031 21.296875 -10.4375 Z M 14.953125 -12.0625 C 14.953125 -13.125 14.585938 -13.96875 13.859375 -14.59375 C 13.140625 -15.21875 12.238281 -15.53125 11.15625 -15.53125 C 10.113281 -15.53125 9.238281 -15.226562 8.53125 -14.625 C 7.820312 -14.03125 7.378906 -13.175781 7.203125 -12.0625 Z M 14.953125 -12.0625 "/></g></g></g><g fill="#191919" fill-opacity="1"><g transform="translate(163.660752, 37.57223)"><g><path d="M 1.015625 -10.109375 C 1.015625 -12.203125 1.441406 -14.035156 2.296875 -15.609375 C 3.148438 -17.179688 4.34375 -18.390625 5.875 -19.234375 C 7.414062 -20.078125 9.175781 -20.5 11.15625 -20.5 C 13.6875 -20.5 15.800781 -19.832031 17.5 -18.5 C 19.207031 -17.175781 20.328125 -15.304688 20.859375 -12.890625 L 14.265625 -12.890625 C 13.710938 -14.441406 12.640625 -15.21875 11.046875 -15.21875 C 9.910156 -15.21875 9.003906 -14.773438 8.328125 -13.890625 C 7.648438 -13.003906 7.3125 -11.742188 7.3125 -10.109375 C 7.3125 -8.460938 7.648438 -7.195312 8.328125 -6.3125 C 9.003906 -5.4375 9.910156 -5 11.046875 -5 C 12.640625 -5 13.710938 -5.769531 14.265625 -7.3125 L 20.859375 -7.3125 C 20.328125 -4.945312 19.203125 -3.085938 17.484375 -1.734375 C 15.773438 -0.378906 13.664062 0.296875 11.15625 0.296875 C 9.175781 0.296875 7.414062 -0.125 5.875 -0.96875 C 4.34375 -1.820312 3.148438 -3.03125 2.296875 -4.59375 C 1.441406 -6.164062 1.015625 -8.003906 1.015625 -10.109375 Z M 1.015625 -10.109375 "/></g></g></g><g fill="#191919" fill-opacity="1"><g transform="translate(185.571271, 37.57223)"><g><path d="M 11.4375 0.296875 C 9.457031 0.296875 7.675781 -0.125 6.09375 -0.96875 C 4.519531 -1.820312 3.28125 -3.03125 2.375 -4.59375 C 1.46875 -6.164062 1.015625 -8.003906 1.015625 -10.109375 C 1.015625 -12.179688 1.472656 -14.007812 2.390625 -15.59375 C 3.304688 -17.175781 4.5625 -18.390625 6.15625 -19.234375 C 7.75 -20.078125 9.535156 -20.5 11.515625 -20.5 C 13.492188 -20.5 15.28125 -20.078125 16.875 -19.234375 C 18.46875 -18.390625 19.722656 -17.175781 20.640625 -15.59375 C 21.554688 -14.007812 22.015625 -12.179688 22.015625 -10.109375 C 22.015625 -8.023438 21.550781 -6.191406 20.625 -4.609375 C 19.695312 -3.035156 18.429688 -1.820312 16.828125 -0.96875 C 15.222656 -0.125 13.425781 0.296875 11.4375 0.296875 Z M 11.4375 -5.078125 C 12.625 -5.078125 13.632812 -5.507812 14.46875 -6.375 C 15.300781 -7.238281 15.71875 -8.484375 15.71875 -10.109375 C 15.71875 -11.722656 15.3125 -12.960938 14.5 -13.828125 C 13.695312 -14.703125 12.703125 -15.140625 11.515625 -15.140625 C 10.304688 -15.140625 9.300781 -14.707031 8.5 -13.84375 C 7.707031 -12.988281 7.3125 -11.742188 7.3125 -10.109375 C 7.3125 -8.484375 7.703125 -7.238281 8.484375 -6.375 C 9.273438 -5.507812 10.257812 -5.078125 11.4375 -5.078125 Z M 11.4375 -5.078125 "/></g></g></g><g fill="#191919" fill-opacity="1"><g transform="translate(208.640687, 37.57223)"><g><path d="M 1.015625 -10.140625 C 1.015625 -12.210938 1.40625 -14.035156 2.1875 -15.609375 C 2.976562 -17.179688 4.046875 -18.390625 5.390625 -19.234375 C 6.742188 -20.078125 8.253906 -20.5 9.921875 -20.5 C 11.253906 -20.5 12.46875 -20.21875 13.5625 -19.65625 C 14.664062 -19.101562 15.53125 -18.359375 16.15625 -17.421875 L 16.15625 -26.796875 L 22.34375 -26.796875 L 22.34375 0 L 16.15625 0 L 16.15625 -2.890625 C 15.570312 -1.929688 14.742188 -1.160156 13.671875 -0.578125 C 12.597656 0.00390625 11.347656 0.296875 9.921875 0.296875 C 8.253906 0.296875 6.742188 -0.128906 5.390625 -0.984375 C 4.046875 -1.847656 2.976562 -3.070312 2.1875 -4.65625 C 1.40625 -6.238281 1.015625 -8.066406 1.015625 -10.140625 Z M 16.15625 -10.109375 C 16.15625 -11.648438 15.722656 -12.867188 14.859375 -13.765625 C 14.003906 -14.660156 12.960938 -15.109375 11.734375 -15.109375 C 10.503906 -15.109375 9.457031 -14.664062 8.59375 -13.78125 C 7.738281 -12.894531 7.3125 -11.679688 7.3125 -10.140625 C 7.3125 -8.597656 7.738281 -7.375 8.59375 -6.46875 C 9.457031 -5.5625 10.503906 -5.109375 11.734375 -5.109375 C 12.960938 -5.109375 14.003906 -5.550781 14.859375 -6.4375 C 15.722656 -7.332031 16.15625 -8.554688 16.15625 -10.109375 Z M 16.15625 -10.109375 "/></g></g></g><g fill="#191919" fill-opacity="1"><g transform="translate(233.231168, 37.57223)"><g><path d="M 21.296875 -10.4375 C 21.296875 -9.851562 21.257812 -9.25 21.1875 -8.625 L 7.171875 -8.625 C 7.265625 -7.363281 7.664062 -6.398438 8.375 -5.734375 C 9.09375 -5.078125 9.972656 -4.75 11.015625 -4.75 C 12.554688 -4.75 13.628906 -5.398438 14.234375 -6.703125 L 20.828125 -6.703125 C 20.484375 -5.367188 19.867188 -4.171875 18.984375 -3.109375 C 18.109375 -2.046875 17.003906 -1.210938 15.671875 -0.609375 C 14.347656 -0.00390625 12.867188 0.296875 11.234375 0.296875 C 9.253906 0.296875 7.488281 -0.125 5.9375 -0.96875 C 4.394531 -1.820312 3.1875 -3.03125 2.3125 -4.59375 C 1.445312 -6.164062 1.015625 -8.003906 1.015625 -10.109375 C 1.015625 -12.203125 1.441406 -14.035156 2.296875 -15.609375 C 3.148438 -17.179688 4.347656 -18.390625 5.890625 -19.234375 C 7.441406 -20.078125 9.222656 -20.5 11.234375 -20.5 C 13.179688 -20.5 14.914062 -20.085938 16.4375 -19.265625 C 17.957031 -18.441406 19.144531 -17.269531 20 -15.75 C 20.863281 -14.226562 21.296875 -12.457031 21.296875 -10.4375 Z M 14.953125 -12.0625 C 14.953125 -13.125 14.585938 -13.96875 13.859375 -14.59375 C 13.140625 -15.21875 12.238281 -15.53125 11.15625 -15.53125 C 10.113281 -15.53125 9.238281 -15.226562 8.53125 -14.625 C 7.820312 -14.03125 7.378906 -13.175781 7.203125 -12.0625 Z M 14.953125 -12.0625 "/></g></g></g><g fill="#191919" fill-opacity="1"><g transform="translate(255.540058, 37.57223)"><g><path d="M 10.46875 0.296875 C 8.707031 0.296875 7.132812 -0.00390625 5.75 -0.609375 C 4.375 -1.210938 3.285156 -2.039062 2.484375 -3.09375 C 1.691406 -4.144531 1.25 -5.320312 1.15625 -6.625 L 7.28125 -6.625 C 7.351562 -5.925781 7.675781 -5.359375 8.25 -4.921875 C 8.832031 -4.492188 9.546875 -4.28125 10.390625 -4.28125 C 11.160156 -4.28125 11.757812 -4.425781 12.1875 -4.71875 C 12.613281 -5.019531 12.828125 -5.414062 12.828125 -5.90625 C 12.828125 -6.476562 12.523438 -6.90625 11.921875 -7.1875 C 11.316406 -7.46875 10.335938 -7.773438 8.984375 -8.109375 C 7.535156 -8.453125 6.328125 -8.8125 5.359375 -9.1875 C 4.390625 -9.5625 3.554688 -10.148438 2.859375 -10.953125 C 2.160156 -11.765625 1.8125 -12.859375 1.8125 -14.234375 C 1.8125 -15.390625 2.128906 -16.441406 2.765625 -17.390625 C 3.410156 -18.347656 4.351562 -19.101562 5.59375 -19.65625 C 6.84375 -20.21875 8.320312 -20.5 10.03125 -20.5 C 12.5625 -20.5 14.554688 -19.867188 16.015625 -18.609375 C 17.484375 -17.359375 18.328125 -15.695312 18.546875 -13.625 L 12.828125 -13.625 C 12.722656 -14.320312 12.410156 -14.875 11.890625 -15.28125 C 11.378906 -15.695312 10.695312 -15.90625 9.84375 -15.90625 C 9.125 -15.90625 8.570312 -15.765625 8.1875 -15.484375 C 7.800781 -15.203125 7.609375 -14.820312 7.609375 -14.34375 C 7.609375 -13.757812 7.914062 -13.320312 8.53125 -13.03125 C 9.144531 -12.75 10.101562 -12.460938 11.40625 -12.171875 C 12.90625 -11.785156 14.125 -11.40625 15.0625 -11.03125 C 16.007812 -10.65625 16.835938 -10.050781 17.546875 -9.21875 C 18.253906 -8.382812 18.625 -7.269531 18.65625 -5.875 C 18.65625 -4.6875 18.320312 -3.625 17.65625 -2.6875 C 16.988281 -1.757812 16.035156 -1.03125 14.796875 -0.5 C 13.554688 0.03125 12.113281 0.296875 10.46875 0.296875 Z M 10.46875 0.296875 "/></g></g></g></g></g></svg>